<svg viewBox="0 0 275.21 248.13" xmlns="http://www.w3.org/2000/svg"><path d="m80.76 182s-9.76 77.1-3.91 86.88 9.24-10 9.24-10 2.22 2.4 3.38 1.25 5.15-64.13 5.15-64.13-.18-26.13 25.95-27.37 30.4-9 30.4-9 3.73 6.9 11.19 5.3 11.38-12.45 11.38-12.45l19.91.18s0 8.08 3.91 7 14.75-11.06 14.75-11.06-8.71-8.71-16-7.46c0 0-1.12 2-8.11.83s-5.81-3.68-16.83-.95-24.88-1-39.7 3.32a42.74 42.74 0 0 1 -27.13-1.34l18.36-41.5a27.52 27.52 0 0 0 1.19-24.5c-5.89-13.3 55.81-35.34 72.64-27.16s12.91 31.63 12.91 31.63 5.81 5.45 10-8.29 5.09-48-31.4-49.65-77.62 29.15-77.62 29.15-17.3 15.52-3 30.93l-19.67 72.52-27.85.12s-11.37 1.42-8.41 20.75 24.88 5.45 24.88 5.45z" fill="#838383" transform="translate(-3.24 -23.46)"/><g fill="#9cc31b"><path d="m50.36 147.65-3.36 7.65s-5.15 4.8-18.66 4.26-24.55-11.91-25.08-27.19 13-29.69 30.39-29.69c0 0 7.82 1.07 12.09 2l-.18 8.89-5-2.49s-25.95-6.4-28.09 18.66 21.33 23.11 26 22.4 11.89-4.49 11.89-4.49z" transform="translate(-3.24 -23.46)"/><path d="m84.4 102.68c-16.54 0-29.95 12.75-29.95 28.46s13.41 28.46 30 28.46 29.95-12.74 29.95-28.46-13.46-28.46-30-28.46zm.27 49.77c-11.1 0-20.09-9.74-20.09-21.77s9-21.77 20.09-21.77 20.08 9.74 20.08 21.77-8.99 21.77-20.08 21.77z" transform="translate(-3.24 -23.46)"/><path d="m122.35 104.64 2.31 3.38-.18 44.08s-.26 4.18-1.78 4.44v1.25h32l3.73-9.42-8.26 3.19h-16.89v-43.81l2.67-3z" transform="translate(-3.24 -23.46)"/><path d="m163.63 104.11 2.31 3.37-.18 44.08s-.27 4.18-1.78 4.45v1.24h32l3.74-9.42-8.27 3.2h-16.89v-43.81l2.66-3z" transform="translate(-3.24 -23.46)"/><path d="m215.12 152.48v-44.73l2.67-3-13.6-.09 2.31 3.38-.18 44.08s-.26 4.18-1.77 4.44v1.25h13.33v-1.27c-2.46-.15-2.76-4.06-2.76-4.06z" transform="translate(-3.24 -23.46)"/><path d="m273.17 129.79-.03-45.79 2.07-3.09-10.55-.09 1.79 3.46-.14 45.12 1.78 5.82 5.22.05z"/><path d="m271.06 144-32.54-39-10.52-.12 1.79 3.37-.14 44.09s-.2 4.17-1.38 4.44v1.22h10.35v-1.2c-1.87-.18-2.11-4.09-2.11-4.09v-37.09l34.88 43.07z" transform="translate(-3.24 -23.46)"/></g></svg>