<svg xmlns="http://www.w3.org/2000/svg" viewBox="0 0 275.21 248.13"><defs><style>.cls-1{fill:#838383;}.cls-2{fill:#9cc31b;}</style></defs><g id="Calque_2" data-name="Calque 2"><path class="cls-1" d="M80.76,182S71,259.1,76.85,268.88s9.24-10,9.24-10,2.22,2.4,3.38,1.25S94.62,196,94.62,196s-.18-26.13,25.95-27.37,30.4-9,30.4-9,3.73,6.9,11.19,5.3,11.38-12.45,11.38-12.45l19.91.18s0,8.08,3.91,7,14.75-11.06,14.75-11.06-8.71-8.71-16-7.46c0,0-1.12,2-8.11.83s-5.81-3.68-16.83-.95-24.88-1-39.7,3.32A42.74,42.74,0,0,1,104.34,143L122.7,101.5A27.52,27.52,0,0,0,123.89,77C118,63.7,179.7,41.66,196.53,49.84s12.91,31.63,12.91,31.63,5.81,5.45,10-8.29,5.09-48-31.4-49.65-77.62,29.15-77.62,29.15-17.3,15.52-3,30.93L87.75,156.13l-27.85.12S48.53,157.67,51.49,177s24.88,5.45,24.88,5.45Z" transform="translate(-3.24 -23.46)"/><path class="cls-2" d="M50.36,147.65,47,155.3s-5.15,4.8-18.66,4.26S3.79,147.65,3.26,132.37s13-29.69,30.39-29.69c0,0,7.82,1.07,12.09,2l-.18,8.89-5-2.49s-25.95-6.4-28.09,18.66,21.33,23.11,26,22.4S50.36,147.65,50.36,147.65Z" transform="translate(-3.24 -23.46)"/><path class="cls-2" d="M84.4,102.68c-16.54,0-29.95,12.75-29.95,28.46s13.41,28.46,30,28.46,29.95-12.74,29.95-28.46S100.94,102.68,84.4,102.68Zm.27,49.77c-11.1,0-20.09-9.74-20.09-21.77s9-21.77,20.09-21.77,20.08,9.74,20.08,21.77S95.76,152.45,84.67,152.45Z" transform="translate(-3.24 -23.46)"/><path class="cls-2" d="M122.35,104.64l2.31,3.38-.18,44.08s-.26,4.18-1.78,4.44v1.25h32l3.73-9.42-8.26,3.19H133.28V107.75l2.67-3Z" transform="translate(-3.24 -23.46)"/><path class="cls-2" d="M163.63,104.11l2.31,3.37-.18,44.08s-.27,4.18-1.78,4.45v1.24h32l3.74-9.42-8.27,3.2H174.56V107.22l2.66-3Z" transform="translate(-3.24 -23.46)"/><path class="cls-2" d="M215.12,152.48l0-44.73,2.67-3-13.6-.09,2.31,3.38-.18,44.08s-.26,4.18-1.77,4.44v1.25l13.33,0v-1.27C215.42,156.39,215.12,152.48,215.12,152.48Z" transform="translate(-3.24 -23.46)"/><polygon class="cls-2" points="273.17 129.79 273.14 84 275.21 80.91 264.66 80.82 266.45 84.28 266.31 129.4 268.09 135.22 273.31 135.27 273.17 129.79"/><path class="cls-2" d="M271.06,144,238.52,105,228,104.88l1.79,3.37-.14,44.09s-.2,4.17-1.38,4.44V158l10.35,0V156.8c-1.87-.18-2.11-4.09-2.11-4.09l0-37.09,34.88,43.07Z" transform="translate(-3.24 -23.46)"/></g></svg>