<svg id="Calque_1" data-name="Calque 1" xmlns="http://www.w3.org/2000/svg" viewBox="0 0 265.85 95.04"><defs><style>.cls-1{fill:#e51737;}.cls-2{fill:#f8ad15;stroke:#fff;stroke-miterlimit:10;}.cls-3{font-size:17.26px;fill:#fff;font-family:ArialMT, Arial;}</style></defs><polygon class="cls-1" points="165 64.66 165 49.53 144.75 49.53 144.75 38.98 161.25 38.98 161.25 25.02 144.75 25.02 144.75 14.3 163.13 14.3 163.13 0.34 144.75 0.34 134.02 0.34 127.55 0.34 127.55 64.68 165 64.66"/><path class="cls-1" d="M211.72,90.26H200.87v-.11H184.53v64.51h16.34V132c13.4,0,25.6-6.57,26-22.72S211.72,90.26,211.72,90.26Zm-1.21,20.17c-.32,10-9.45,8.42-9.45,8.42V102.7S210.83,100.4,210.51,110.43Z" transform="translate(-8.81 -89.81)"/><polygon class="cls-1" points="265.85 64.82 265.85 49.28 244.75 49.28 244.75 0.51 227.89 0.51 227.89 64.77 265.85 64.82"/><path class="cls-2" d="M62,127.17A3.73,3.73,0,0,0,61.3,122s-10.56-.15-15.66-.15S43.25,127,43.25,127l1,.17H41.38v19.66s0,4.34-2.38,6.72c0,0,5.79,1,7.06-3.15V132.62s2.21-3.24,4.26,0v13.1s.76,5.71,5.1-1.61v-10.3s2.73-4.26,4.77,0,3.57,1.79,4-6.64Z" transform="translate(-8.81 -89.81)"/><path class="cls-2" d="M54.74,100.11a2.13,2.13,0,1,0-4.25,0,2.24,2.24,0,0,0,.18.86,2.14,2.14,0,0,0-.18.84v13.53a2,2,0,1,0,4.08,0V101.81a2,2,0,0,0-.11-.65A2.19,2.19,0,0,0,54.74,100.11Z" transform="translate(-8.81 -89.81)"/><rect class="cls-2" x="38.28" y="26.04" width="11.66" height="6.19" rx="3.1"/><ellipse class="cls-2" cx="44.11" cy="23.32" rx="4" ry="2.63"/><path class="cls-1" d="M105.64,90.45v25.27H87.38V89.81H71.93V103c-.68,16.42-4.26,43.23-19.91,51l19.91.22H87.38V129h18.26v25h17.1V90.45Z" transform="translate(-8.81 -89.81)"/><path class="cls-1" d="M35.42,153.45s-3.76-.83-2.29-18.77H31.91S29,137.11,28.47,145c0,0-10.47-15,7.46-23.36,0,0,6.52-2,6.26-7.79,0,0-3.57,5.93-9.26,5.14A5.93,5.93,0,0,0,26,123.06s-3.83-.83-2.88-5.29c0,0,7.41.19,7.54-4s-7.4-2.94-7.69-1.92-3.55,2.75-3.55-3.25c0,0-2.1-1-.51-2.3S29.81,94.66,36.7,94.91H49.08s-6.44-2.48-7.72-5H8.81v34.34S14.62,148,34.85,154Z" transform="translate(-8.81 -89.81)"/><text class="cls-3" transform="translate(9.29 89.43) scale(0.92 1)">Haute Ecole de la Province de Liège</text></svg>