<?xml version="1.0" encoding="utf-8"?>
<!-- Generator: Adobe Illustrator 26.0.3, SVG Export Plug-In . SVG Version: 6.00 Build 0)  -->
<svg version="1.1" class="figure__logo" xmlns="http://www.w3.org/2000/svg" xmlns:xlink="http://www.w3.org/1999/xlink" x="0px" y="0px"
	 viewBox="0 0 331.3 538.9" style="enable-background:new 0 0 331.3 538.9;" xml:space="preserve" fill="#FFFFFF">
<path class="st0" d="M309.9,175.5c-17-20-41.9-31.5-68.2-31.5c0,0,0,0-0.1,0c-16.4,0-32.4,4.5-46.3,12.9c-6.2,3.6-8.3,11.6-4.7,17.8
	s11.6,8.3,17.8,4.7c0.2-0.1,0.3-0.2,0.4-0.3c14.5-8.8,31.6-11.5,48.1-7.5c16.5,4,30.5,14.2,39.3,28.7c8.8,14.5,11.5,31.6,7.5,48.1
	s-14.2,30.5-28.7,39.3c-14.5,8.8-31.6,11.5-48.1,7.5c-16.5-4-30.5-14.2-39.3-28.7c-4.5-7.5-7.5-15.6-8.7-24.3l0,0l0,0
	c-0.4-2.9-0.7-5.8-0.7-8.8c0-1.9-0.1-3.8-0.2-5.6V13c0-7.2-5.8-13-13-13s-13,5.8-13,13v157c-16-16.1-38.1-26.1-62.4-26.1
	c-49.4,0.5-89.1,41.1-88.6,90.5c0.3,23.6,9.6,45.7,26.2,62.4c16.7,16.7,38.8,26,62.4,26.2c7.2,0,13-5.8,13-13s-5.8-13-13-13
	c-35.1,0-63.6-28.5-63.6-63.6s28.5-63.6,63.6-63.6c33.5,0,60,25.4,62.4,58.7v26.7v184.2c-4,56.4-60.1,73.2-62.6,73.9
	c-6.8,2.2-10.6,9.5-8.4,16.4c1.8,5.5,6.9,9,12.4,9c1.1,0,2.1-0.1,3.2-0.4c0.8-0.2,76.3-22.5,81.3-97.6l0-0.1V296.6l0.9,1.1v-0.5
	c15,14.8,34.5,23.8,55.7,25.5c2.4,0.2,4.9,0.3,7.3,0.3c21.2,0,41.6-7.5,57.9-21.4c18.2-15.5,29.3-37.2,31.2-61
	C332.9,216.8,325.4,193.7,309.9,175.5z M164.9,6c3.9,0,7,3.1,7,7v187.6c-3.4-8.8-8.2-16.8-14-24V13C157.9,9.1,161.1,6,164.9,6z
	 M325,240.2c-1.8,22.2-12.1,42.5-29.1,56.9c-17,14.5-38.6,21.5-60.8,19.7c-21.9-1.8-41.8-11.8-56.2-28.3v-25.3
	c1,2.2,2.2,4.4,3.5,6.5c9.7,15.9,24.9,27.1,43,31.5c18.1,4.4,36.8,1.5,52.7-8.2s27.1-24.9,31.5-43c4.4-18.1,1.5-36.8-8.2-52.7
	c-9.7-15.9-24.9-27.1-43-31.5c-18.1-4.4-36.8-1.5-52.7,8.2c-0.1,0.1-0.2,0.1-0.3,0.2c-3.3,1.9-7.6,0.8-9.6-2.6
	c-1.9-3.3-0.8-7.6,2.6-9.6c13.1-7.9,28-12.1,43.3-12.1c0,0,0,0,0,0h0c0,0,0,0,0,0c24.5,0,47.7,10.7,63.6,29.4
	C319.8,196.3,326.8,217.9,325,240.2z"/>
</svg>
