<svg id="Calque_2" data-name="Calque 2" xmlns="http://www.w3.org/2000/svg" xmlns:xlink="http://www.w3.org/1999/xlink" viewBox="0 0 173.96 97.24"><defs><style>.cls-1{fill:url(#Dégradé_sans_nom_25);}.cls-2{fill:#e63326;}</style><linearGradient id="Dégradé_sans_nom_25" x1="40.22" y1="141.08" x2="214.17" y2="141.08" gradientUnits="userSpaceOnUse"><stop offset="0" stop-color="#0f6039"/><stop offset="0.07" stop-color="#146538"/><stop offset="0.15" stop-color="#237237"/><stop offset="0.24" stop-color="#3c8834"/><stop offset="0.34" stop-color="#5fa631"/><stop offset="0.38" stop-color="#71b62f"/><stop offset="0.54" stop-color="#4eb47f"/><stop offset="0.72" stop-color="#59c2dd"/><stop offset="1" stop-color="#104173"/></linearGradient></defs><path class="cls-1" d="M53.89,163,40.22,176s7.31,11.24,35.57,11.24S110,164.93,110,164.93s8-32.52-28.25-34.38S76.3,97.18,96.9,119.31c0,0,57.47,60.4,66,66.38s38.7,9.82,50.89-23.32l.34-69.1H192v66.21c0,3.35-10.38,21.28-30.63-2l-55-55.83S80.9,82.2,54.68,99.91s-5.1,53.44,18.56,49.53S96.16,185,53.89,163Z" transform="translate(-40.22 -92.46)"/><path class="cls-2" d="M115.21,102.32l6.26,5.62s17.8-14.45,29-1.79c10.59,12,4.71,24.25-1.15,30.64l-41.62,50h57.38l-10.27-8.3-28.47.13,35.89-42.75S174.57,114.7,155,98.74C140.45,86.82,121,95.94,115.21,102.32Z" transform="translate(-40.22 -92.46)"/></svg>