<svg xmlns="http://www.w3.org/2000/svg" viewBox="0 0 140.57 111.26"><defs><style>.cls-1{fill:#fff;}</style></defs><g id="Calque_2" data-name="Calque 2"><path class="cls-1" d="M139.91,154.3A41.74,41.74,0,0,1,126,151.77C117,148.63,110.57,144,106.27,139c-6.71,2.62-12.63,2.79-17.62.5C80.56,135.74,78,127,77.87,126.59a1,1,0,0,1,.68-1.23,1,1,0,0,1,1.24.68c0,.09,2.46,8.29,9.71,11.6,4.33,2,9.52,1.87,15.46-.33-4.62-6.23-6.17-13-5.2-18.67,1.12-6.59,5.53-10.68,11.5-10.68,5.34,0,10.5,4.45,11.74,10.13.8,3.61,1,12.77-14.39,19.86l-.31.14c4.16,4.73,10.25,8.95,18.35,11.8,20.48,7.18,33.33-3.41,39.17-10.37a46,46,0,0,0,10.51-24.37c-6.38.28-36.35.91-45.61-11-2.9-3.73-3.49-8.31-1.78-13.62,2.63-8.14,6.89-13.4,12.32-15.22,4.93-1.65,10.71-.42,16.27,3.48,8.8,6.16,15.61,18.37,18.52,23.58l.42.75c4.89,8.72.72,26-9.12,37.7C162.63,146.43,153.58,154.3,139.91,154.3ZM111.26,110c-4.93,0-8.58,3.45-9.53,9-.92,5.39.79,11.74,5.25,17.52.27-.12.53-.23.79-.36,14-6.48,14-14.47,13.28-17.61C120,113.72,115.69,110,111.26,110Zm34.47-33.37a12,12,0,0,0-3.84.61c-4.8,1.61-8.62,6.43-11,13.94-1.53,4.7-1,8.56,1.45,11.78,8.66,11.15,38.57,10.45,44.15,10.22a17.69,17.69,0,0,0-1.73-9l-.42-.76c-2.84-5.09-9.49-17-17.92-22.92A18.91,18.91,0,0,0,145.73,76.59Z" transform="translate(-77.83 -74.59)"/><path class="cls-1" d="M161.47,102.06c-4.26-3-11,4.68-11,4.68L81,181.47s-3.4,2.21-2,3.74,4.09-1.7,4.09-1.7l74.55-70.27S165.72,105,161.47,102.06Zm-3.07,7.22-7.75,8c-1.05,1.47-3.63,2.12-4.48,1.39s.66-3.21,1.39-4.06l6.5-8c2.15-2.51,4.05-2.8,4.9-2.06S160,107.83,158.4,109.28Z" transform="translate(-77.83 -74.59)"/><circle class="cls-1" cx="104.87" cy="108.15" r="3.11"/><path class="cls-1" d="M180.79,157.38H162l3.66,3.15v22l-3.07,3.23,13.2-.1L172.36,183v-9.62c9,.6,13.53-.17,14.3-7.23S180.79,157.38,180.79,157.38Zm-4,14.39h-3l-1-.94V159.51l.93-.94s1.11.09,3.07.17,3.06,3.66,3.06,7S176.79,171.77,176.79,171.77Z" transform="translate(-77.83 -74.59)"/><path class="cls-1" d="M205.89,185.62l12.51-.24-3.4-2.12-8.34-25h-5.53l-8.94,25.2-3,2.19,7.15-.24-1.79-1.87,2.56-9.36h7.66l3,8.42-1.71,2.22Zm-8.68-12.49,3.66-10.22L204.53,173Z" transform="translate(-77.83 -74.59)"/></g></svg>