<svg xmlns="http://www.w3.org/2000/svg" viewBox="0 0 209.61 211.53"><defs><style>.cls-1{fill:#a8a7a9;}.cls-2{fill:#ef7d22;}.cls-3{fill:#e62550;}.cls-4{fill:#3bb8b9;}.cls-5{fill:#d768a5;}.cls-6{fill:#b7cf3a;}.cls-7{fill:#a8a8aa;}</style></defs><g id="Calque_3" data-name="Calque 3"><path class="cls-1" d="M78.11,205.34c-5.09,0-6,3.06-6,4.4h3.61s0-2.17,2.59-2.07a2,2,0,0,1,2.1,2.46l0,1.85s-5.2-2-8.2,2.78l-.07,3.12s.61,3.35,5.94,3.55,6.16-3.58,6.16-3.58v-9.19S83.2,205.34,78.11,205.34Zm2.08,12.53s-.33,1-2.13,1c-2.06.06-2.26-1.27-2.26-1.27v-2.3A2.39,2.39,0,0,1,78,214.09a2.48,2.48,0,0,1,2.28,1.09Z" transform="translate(-54.91 -38.36)"/><path class="cls-1" d="M181,233.71c-5.1,0-6,3.06-6,4.4h3.6s0-2.17,2.59-2.07a2,2,0,0,1,2.11,2.46l0,1.85s-5.2-2-8.2,2.77l-.06,3.13s.6,3.35,5.93,3.54,6.16-3.57,6.16-3.57V237S186.1,233.71,181,233.71Zm2.08,12.53s-.34.95-2.13,1c-2.07,0-2.27-1.28-2.27-1.28v-2.29a2.41,2.41,0,0,1,2.18-1.22,2.5,2.5,0,0,1,2.28,1.1Z" transform="translate(-54.91 -38.36)"/><path class="cls-1" d="M97.33,205.7v11.85a2.62,2.62,0,0,1-4.65,0V205.7H88.94v11.85a5.73,5.73,0,0,0,5.93,3.88c4.81-.13,6.06-2.56,6.2-3.88V205.7Z" transform="translate(-54.91 -38.36)"/><rect class="cls-1" x="50.38" y="166.79" width="9.23" height="2.45"/><path class="cls-1" d="M114.83,218.77c-3.92.83-3.92-1.28-3.92-1.28V198.6h-3.76v18.89c2.25,6.42,9.94,2.89,9.94,2.89Z" transform="translate(-54.91 -38.36)"/><path class="cls-1" d="M99.87,236.21C96,235.38,96,237.49,96,237.49v11.8H92.19v-11.8c2.26-6.43,9.94-2.89,9.94-2.89Z" transform="translate(-54.91 -38.36)"/><path class="cls-1" d="M196.7,233.75c-2.27-.16-4.92.48-6.1,3.84v11.79h3.77V237.59s0-1.16,1.59-1.42a6.73,6.73,0,0,1,.74,0,6.56,6.56,0,0,1,.73,0c1.59.26,1.6,1.42,1.6,1.42v11.79h3.76V237.59C201.62,234.23,199,233.59,196.7,233.75Z" transform="translate(-54.91 -38.36)"/><path class="cls-1" d="M133.73,208.79c0-1.92-2.7-3.47-6-3.47s-6,1.55-6,3.47a2.11,2.11,0,0,0,0,.25h0v9s.28,3.45,6.17,3.45,5.79-4.47,5.79-4.47H130c-.1,1.06-.47,2-2.27,2a3,3,0,0,1-2.47-.94v-3.74h8.43V209h0A2.11,2.11,0,0,0,133.73,208.79Zm-3.77.12v2.81h-4.69v-2.81h0s0,0,0-.06c0-.61,1-1.1,2.34-1.1s2.35.49,2.35,1.1a.14.14,0,0,1,0,.06Z" transform="translate(-54.91 -38.36)"/><path class="cls-1" d="M114.82,237.16c0-1.92-2.7-3.47-6-3.47s-6,1.55-6,3.47a2,2,0,0,0,0,.25h0v9s.27,3.45,6.17,3.45,5.78-4.47,5.78-4.47h-3.59c-.11,1.06-.47,2-2.28,2a3,3,0,0,1-2.47-.94v-3.74h8.44v-5.22h0A1.9,1.9,0,0,0,114.82,237.16Zm-3.78.13v2.81h-4.69v-2.81h0s0,0,0-.06c0-.61,1.05-1.11,2.35-1.11s2.34.5,2.34,1.11c0,0,0,0,0,.06Z" transform="translate(-54.91 -38.36)"/><path class="cls-1" d="M218.57,237.16c0-1.92-2.69-3.47-6-3.47s-6,1.55-6,3.47a2,2,0,0,0,0,.25h0v9s.27,3.45,6.17,3.45,5.78-4.47,5.78-4.47h-3.59c-.11,1.06-.47,2-2.28,2a3,3,0,0,1-2.47-.94v-3.74h8.43v-5.22h0A2,2,0,0,0,218.57,237.16Zm-3.77.13v2.81h-4.69v-2.81h0s0,0,0-.06c0-.61,1-1.11,2.35-1.11s2.34.5,2.34,1.11c0,0,0,0,0,.06Z" transform="translate(-54.91 -38.36)"/><path class="cls-1" d="M218.48,208.79c0-1.91-2.7-3.47-6-3.47s-6,1.56-6,3.47a2.28,2.28,0,0,0,0,.26h0V218s.28,3.45,6.17,3.45,5.79-4.47,5.79-4.47h-3.6c-.1,1.07-.47,2-2.27,2a3,3,0,0,1-2.47-.94v-3.74h8.43v-5.21h0A2.28,2.28,0,0,0,218.48,208.79Zm-3.77.13v2.81H210v-2.81h0s0,0,0-.06c0-.61,1-1.11,2.34-1.11s2.35.5,2.35,1.11a.14.14,0,0,1,0,.06Z" transform="translate(-54.91 -38.36)"/><rect class="cls-1" x="15.23" y="190.4" width="3.43" height="2.45"/><path class="cls-1" d="M59,247l-.24-.24V227H55.09v19.74s-.43,2.68,3.87,2.62h8.21V247Z" transform="translate(-54.91 -38.36)"/><path class="cls-1" d="M149.36,218.51l-.23-.13v-1.29h0v-6.28h6.76V208.3h-6.76v-6h0V201.1l.14-.1,8.05,0,0-2.56h-8.14c-4.12-.06-3.71,2.62-3.71,2.62v16.06h0v1.29s-.43,2.68,3.87,2.62h8.21v-2.49Z" transform="translate(-54.91 -38.36)"/><path class="cls-1" d="M170.11,209.39l3.7,0s-.45-4.26-6-4.26-6.09,3.6-6.09,3.6v8.95a6.39,6.39,0,0,0,6.05,3.71c4.49-.13,6.1-2.45,6-4h-3.63s.15,1.63-2.34,1.59-2.32-1.15-2.32-1.15v-9a2.62,2.62,0,0,1,2.32-1.15C169.47,207.66,170.11,208.57,170.11,209.39Z" transform="translate(-54.91 -38.36)"/><path class="cls-1" d="M190.6,217.43v-8.66s-.41-2.66-4-3.4l-.08,0-.39-.06-.58-.08h-.05c-.25,0-.51,0-.79,0h-.15c-.28,0-.54,0-.79,0h-.05l-.58.08-.39.06-.08,0c-3.64.74-4.05,3.4-4.05,3.4v8.66c-.11,1.34,1.09,3.25,4.32,3.83a6.85,6.85,0,0,0,1.62.16h.15a6.85,6.85,0,0,0,1.62-.16C189.51,220.68,190.71,218.77,190.6,217.43Zm-6,1.59a5,5,0,0,1-1.28-.17,1.5,1.5,0,0,1-1-.91.14.14,0,0,1,0-.07v-9a1.46,1.46,0,0,1,.07-.19,2.88,2.88,0,0,1,4.43,0c0,.07,0,.13.07.19v9a.14.14,0,0,1,0,.07,1.5,1.5,0,0,1-1,.91A5,5,0,0,1,184.59,219Z" transform="translate(-54.91 -38.36)"/><path class="cls-1" d="M156.13,245.88v-8.66s-.41-2.65-4-3.4H152l-.39-.07-.58-.07H151c-.25,0-.51,0-.79,0H150c-.28,0-.54,0-.79,0h-.05l-.58.07-.39.07h-.08c-3.64.75-4,3.4-4,3.4v8.66c-.11,1.35,1.08,3.26,4.31,3.84a6.85,6.85,0,0,0,1.62.16h.16a6.76,6.76,0,0,0,1.61-.16C155,249.14,156.24,247.23,156.13,245.88Zm-6,1.6a4.86,4.86,0,0,1-1.27-.17,1.52,1.52,0,0,1-1-.91v-9a1.07,1.07,0,0,1,.07-.19,2.72,2.72,0,0,1,2.22-1,2.68,2.68,0,0,1,2.21,1,1.07,1.07,0,0,1,.07.19v9a.24.24,0,0,1,0,.07,1.57,1.57,0,0,1-1,.91A5,5,0,0,1,150.12,247.48Z" transform="translate(-54.91 -38.36)"/><path class="cls-1" d="M85.44,233.57l-.08,0-.39-.06-.58-.08h0c-.26,0-.52,0-.8,0H83.4c-.28,0-.53,0-.79,0h0l-.59.08-.38.06-.08,0-.33.08V227H77.51l0,10v8.68c-.11,1.34,1.09,3.25,4.31,3.83a6.85,6.85,0,0,0,1.62.16h.16a6.76,6.76,0,0,0,1.61-.16c3.23-.58,4.43-2.49,4.32-3.83V237S89.09,234.31,85.44,233.57Zm-.69,13.49a5.06,5.06,0,0,1-1.27.16,5,5,0,0,1-1.27-.16,1.55,1.55,0,0,1-1-.92v-9a1.34,1.34,0,0,1,.07-.18,2.7,2.7,0,0,1,2.22-1,2.65,2.65,0,0,1,2.21,1,1.42,1.42,0,0,1,.08.18v9A1.58,1.58,0,0,1,84.75,247.06Z" transform="translate(-54.91 -38.36)"/><rect class="cls-1" x="15.23" y="195.79" width="3.32" height="15.11"/><path class="cls-1" d="M136.88,227l-4.14,8.17h-.36L128.23,227h-3.57v22.34h3.57V233.81h.32l3,5.53a1.8,1.8,0,0,0,2,0l3-5.53h.33v15.47h3.58V227Z" transform="translate(-54.91 -38.36)"/><path class="cls-1" d="M199.24,217.48V198.57h-3.67v18.91s.67,4,5.94,3.88l0-2.38S199.51,219.1,199.24,217.48Z" transform="translate(-54.91 -38.36)"/><path class="cls-1" d="M159.6,245.32h3.63s-.22,2.15,2.47,2,2.22-1.74,2.22-1.74v-1.8s-.43-1.09-2.31-1.2-5.63-1-6-3.64,1.81-5.17,4.92-5.3h2.09s4.88.63,4.92,4.19H168s.21-1.66-2.36-1.63-2.39,1.85-2.39,1.85-.18,2,2.52,2.15,5.1,1.39,5.74,3.29v2.84s-.59,3.41-5.18,3.53S159.23,247.61,159.6,245.32Z" transform="translate(-54.91 -38.36)"/><circle class="cls-2" cx="156.72" cy="110.69" r="7.32"/><circle class="cls-3" cx="179.7" cy="87.33" r="7.32"/><circle class="cls-4" cx="156.72" cy="87.33" r="7.32"/><circle class="cls-5" cx="202.3" cy="63.45" r="7.32"/><circle class="cls-6" cx="179.96" cy="63.67" r="7.32"/><path class="cls-7" d="M71.09,104.18v-17a6.73,6.73,0,0,1,6.72-6.72h8.85a6.73,6.73,0,0,1,6.72,6.72V104.1A5,5,0,0,0,98.06,109h0a10.88,10.88,0,0,0,11.58-11V50.15A11.61,11.61,0,0,0,98.06,38.57h0a4.69,4.69,0,0,0-4.68,4.69v17.1a6.74,6.74,0,0,1-6.72,6.73H77.81a6.74,6.74,0,0,1-6.72-6.73V43.17a4.6,4.6,0,0,0-4.6-4.6h0A11.61,11.61,0,0,0,54.91,50.15V97.47A11.61,11.61,0,0,0,66.49,109h0A4.86,4.86,0,0,0,71.09,104.18Z" transform="translate(-54.91 -38.36)"/><path class="cls-7" d="M165.15,95.09H138.88a5.69,5.69,0,0,1-5.67-5.67v-3a5.68,5.68,0,0,1,5.67-5.67h4l.34-.05h10.4a5.74,5.74,0,0,0,5.52-5.88V72.41a5.7,5.7,0,0,0-5.67-5.67H142.83v-.08h-4A5.68,5.68,0,0,1,133.13,61V58a5.68,5.68,0,0,1,5.67-5.67h4v-.08h21a5.68,5.68,0,0,0,5.67-5.67V44.16a5.68,5.68,0,0,0-5.67-5.67H129.69a5.65,5.65,0,0,0-1.66.25,11,11,0,0,0-10.39,10.95V97.94a11,11,0,0,0,11,11h3.23a10.57,10.57,0,0,0,2.19-.22H163.8a5.68,5.68,0,0,0,5.67-5.67v-2.45A5.68,5.68,0,0,0,165.15,95.09Z" transform="translate(-54.91 -38.36)"/><path class="cls-7" d="M165.81,127.34A31.15,31.15,0,1,0,197,158.49,31.15,31.15,0,0,0,165.81,127.34Zm-.26,47.15a15.75,15.75,0,1,1,15.75-15.75A15.75,15.75,0,0,1,165.55,174.49Z" transform="translate(-54.91 -38.36)"/><path class="cls-7" d="M198.66,95a7.51,7.51,0,0,1-7.49-7.48l.19-44c0-1-2.61-5.17-3.62-5.17h-.46c-7.57,0-11.68,6.32-11.68,13.88v49.2a7.51,7.51,0,0,0,7.48,7.48h27.41a7.51,7.51,0,0,0,7.49-7.48v-1.26A5.14,5.14,0,0,0,212.84,95Z" transform="translate(-54.91 -38.36)"/><path class="cls-7" d="M112.91,121.6,96.19,139.13s-5,4.32-9.79-.51l-16-16.77s-7.83-6.3-13.78-1.11l0,.09a5.64,5.64,0,0,0-1.55,3.88v59.64A5.68,5.68,0,0,0,60.75,190h1.81a5.68,5.68,0,0,0,5.67-5.67V156c.74-1.36,1.85-2.27,3.54-1.33,3.87,2.17,6.17,8.09,15.14,8.43s13.37-11.75,17.92-7.79l.21,28.3s.22,7.49,8.64,6.3,11.19-10.6,11.19-10.6L125.3,125S121.38,113.55,112.91,121.6Z" transform="translate(-54.91 -38.36)"/><polygon class="cls-1" points="8.43 160.13 8.43 170.13 3.79 170.13 3.79 160.25 0.17 160.25 0.17 182.64 3.79 182.64 3.79 172.47 8.43 172.47 8.43 182.51 12.04 182.51 12.04 160.13 8.43 160.13"/></g></svg>