<svg id="Calque_1" data-name="Calque 1" xmlns="http://www.w3.org/2000/svg" viewBox="0 0 189.7 141.73"><defs><style>.cls-1{fill:#6caa5f;}.cls-2,.cls-3{fill:#fff;}.cls-3{stroke:#021418;stroke-miterlimit:10;stroke-width:1.5px;}.cls-4{fill:#0c7277;}</style></defs><path class="cls-1" d="M87.87,198.81l-.64-1.7c.27-.1,28-10.37,54.88-7.3l-.21,1.8C115.44,188.59,88.14,198.71,87.87,198.81Z" transform="translate(-38.68 -64.83)"/><polygon class="cls-1" points="186.08 141.73 162.3 134.31 162.84 132.58 181.22 138.32 177.48 133.37 178.93 132.28 186.08 141.73"/><path class="cls-1" d="M200.19,168.44c-9.06-13.52-13.81-58.39-15.86-84.44-2.49,39.58-12.67,64.25-12.79,64.53l-1.67-.7c.13-.32,13.5-32.73,13.19-83l1.81,0c0,.84,4.35,84,16.82,102.6Z" transform="translate(-38.68 -64.83)"/><path class="cls-2" d="M43.33,191.77l-.53-1.4c20.56-7.75,21.42-10.28,21.39-10.7,0,0-.06-.46-2.09-.87-5.1-.73-22-3.36-23.3-6.45a1.41,1.41,0,0,1,.16-1.41c4.38-6.22,20.26-7.17,20.93-7.2l.08,1.49c-.15,0-15.82,1-19.79,6.58.52,1.5,11.92,4.05,22.17,5.51,1.52.3,3.22.83,3.34,2.22C65.83,181.37,63.29,184.24,43.33,191.77Z" transform="translate(-38.68 -64.83)"/><path class="cls-2" d="M73.32,188.27a2.11,2.11,0,0,1-1.36-.38c-1.47-.77-2.18-1.73-2.1-2.83.23-3.13,7.38-5.73,8.8-6.22l.49,1.42c-3.16,1.09-7.67,3.33-7.79,4.91,0,.58.72,1.1,1.36,1.43l.18.13a2.2,2.2,0,0,0,.41.05c.8,0,2.89-.41,7.27-3.57l.48-.34L85,186.23l-1,1.14L81,184.77C77,187.58,74.64,188.27,73.32,188.27Z" transform="translate(-38.68 -64.83)"/><path class="cls-3" d="M89.14,170.55" transform="translate(-38.68 -64.83)"/><rect class="cls-2" x="49.85" y="106.13" width="1.26" height="1.22"/><rect class="cls-2" x="49.58" y="114.77" width="1.5" height="7.25"/><path class="cls-2" d="M108,186.75h-1.5v-8.88c-3.71.85-9.57,6.17-11.65,8.3l-1.07-1c.34-.35,8.49-8.65,13.44-8.86l.78,0Z" transform="translate(-38.68 -64.83)"/><rect class="cls-2" x="92.14" y="112.94" width="9.53" height="1.5"/><path class="cls-2" d="M111.88,177.6l-.54-1.39a44,44,0,0,1,16.44-2.64l-.09,1.5A43.18,43.18,0,0,0,111.88,177.6Z" transform="translate(-38.68 -64.83)"/><path class="cls-2" d="M119.85,184.5c-.85-7.88,2.27-25.05,2.4-25.78l1.48.27c0,.17-3.21,17.68-2.38,25.35Z" transform="translate(-38.68 -64.83)"/><path class="cls-2" d="M181,187.66a15.91,15.91,0,0,1-2.95-.25c-3-.56-4.49-2-4.2-4.1.84-6.13,11.08-7.19,11.52-7.23h.1l.1,0c.19,0,4.66.87,6.38,3.49a4.05,4.05,0,0,1,.54,3.28C191.73,186,185.8,187.66,181,187.66Zm4.41-10.08c-1,.13-9.44,1.26-10.08,5.93-.21,1.5,1.52,2.15,3,2.43,4.89.91,12.13-1,12.7-3.42a2.54,2.54,0,0,0-.34-2.11C189.42,178.51,186,177.72,185.38,177.58Z" transform="translate(-38.68 -64.83)"/><path class="cls-2" d="M209.73,188.58l-10.59,0c-3.12-1.12-4.61-2.39-4.53-3.88.17-3.13,7.94-5.15,9.5-5.53l.35,1.46c-4,.95-8.28,2.81-8.35,4.15,0,.26.2,1.17,3.42,2.34h10.2Z" transform="translate(-38.68 -64.83)"/><path class="cls-2" d="M228.38,194.72h-1.5v-6.59c-2-1.84-9.12-.74-13.24.42l-1,.3.09-1.08a107.16,107.16,0,0,1,6.58-29.07l1.39.57a105.47,105.47,0,0,0-6.39,27.56c3.08-.76,11.4-2.49,13.93.52l.18.21Z" transform="translate(-38.68 -64.83)"/><path class="cls-4" d="M147.2,202.42c-.07-.92-1.67-22.57,1.8-33.76l1.44.44c-3.39,10.92-1.76,33-1.75,33.2Z" transform="translate(-38.68 -64.83)"/><path class="cls-4" d="M185.79,195.43c-9-3.33-32.32-6.82-32.55-6.86l-2.17-.32,1.91-1.07c21.21-11.9,22-20.28,22-21.11-1.38-4.34-3.63-6.93-6.69-7.69-8.46-2.14-20.69,9.76-20.81,9.88l-1.05-1.07c.52-.52,13-12.6,22.23-10.27,3.62.91,6.24,3.87,7.78,8.81l0,.16c0,.37.52,9-20.88,21.53,6,1,23.11,3.78,30.73,6.6Z" transform="translate(-38.68 -64.83)"/></svg>