<?xml version="1.0" encoding="utf-8"?>
<!-- Generator: Adobe Illustrator 26.0.3, SVG Export Plug-In . SVG Version: 6.00 Build 0)  -->
<svg version="1.1" xmlns="http://www.w3.org/2000/svg" xmlns:xlink="http://www.w3.org/1999/xlink" x="0px" y="0px"
	 viewBox="0 0 283.5 283.5" style="enable-background:new 0 0 283.5 283.5;" xml:space="preserve">
<style type="text/css">
	.st0{display:none;}
	.st1{fill:#1F86C8;}
	.st2{fill:#0671B8;}
	.st3{fill:#A8C824;}
	.st4{fill:#60B233;}
	.st5{fill:#FFFFFF;}
</style>
<g id="Calque_1" class="st0">
	
		<image style="display:inline;overflow:visible;" width="1176" height="1448" xlink:href="SQL.png"  transform="matrix(0.1195 0 0 0.1195 71.4491 70.2396)">
	</image>
</g>
<g id="Calque_3">
	<g>
		<path class="st1" d="M235.1,51.3v179.6c0,0-17.3,28.4-97.3,30.3l-1-194.2L235.1,51.3z"/>
		<path class="st2" d="M53.6,51.3v179.6c0,0,9.1,28.4,89.1,30.3l1-194.2L53.6,51.3z"/>
		<g>
			<ellipse class="st3" cx="145.4" cy="49.8" rx="77.3" ry="25.1"/>
			<path class="st4" d="M82.7,67.2c0,0,52.2-26.2,124-2l-16.8,10.5L119.1,79L82.7,67.2z"/>
			<path class="st5" d="M144.8,17.6c-49.9,0-90.3,15.1-90.3,33.8c0,18.6,40.4,33.8,90.3,33.8c49.9,0,90.3-15.1,90.3-33.8
				C235.1,32.7,194.6,17.6,144.8,17.6z M145.3,71.4c-40.5,0-73.3-9.8-73.3-22s32.8-22,73.3-22c40.5,0,73.3,9.8,73.3,22
				S185.7,71.4,145.3,71.4z"/>
		</g>
	</g>
</g>
<g id="Calque_2">
	<g>
		<polygon class="st5" points="186.1,130 186.1,193 223.9,193.4 223.9,181.8 200.5,181.8 200.5,130 		"/>
		<path class="st5" d="M176.6,161.3c0-18.3-14.2-33.1-31.7-33.1c-17.5,0-31.7,14.8-31.7,33.1c0,17.3,12.7,31.4,28.8,33l13.7,14.8
			h18.5l-18-16.8C168.1,187.5,176.6,175.5,176.6,161.3z M127.8,161.2c0-11.4,7.4-20.6,16.6-20.6s16.6,9.2,16.6,20.6
			c0,11.4-7.4,20.6-16.6,20.6S127.8,172.6,127.8,161.2z"/>
		<path class="st5" d="M65.9,177l0.3,13.3c0,0,20.9,8.8,33.5-0.8c12.6-9.6,7-23.7-0.8-28.6s-21.5-9.6-17.6-17.2s21.1-2,22.6,0.1
			v-12.7c0,0-23.3-7-33.7,4.7s-1.2,27.4,11.9,31.4s14.1,15.9-0.8,15.8C81.2,183,75.9,184.1,65.9,177z"/>
	</g>
</g>
</svg>
