<svg enable-background="new 0 0 283.5 283.5" viewBox="0 0 283.5 283.5" xmlns="http://www.w3.org/2000/svg"><path d="m235.1 51.3v179.6s-17.3 28.4-97.3 30.3l-1-194.2z" fill="#1f86c8"/><path d="m53.6 51.3v179.6s9.1 28.4 89.1 30.3l1-194.2z" fill="#0671b8"/><ellipse cx="145.4" cy="49.8" fill="#a8c824" rx="77.3" ry="25.1"/><path d="m82.7 67.2s52.2-26.2 124-2l-16.8 10.5-70.8 3.3z" fill="#60b233"/><g fill="#fff"><path d="m144.8 17.6c-49.9 0-90.3 15.1-90.3 33.8 0 18.6 40.4 33.8 90.3 33.8s90.3-15.1 90.3-33.8-40.5-33.8-90.3-33.8zm.5 53.8c-40.5 0-73.3-9.8-73.3-22s32.8-22 73.3-22 73.3 9.8 73.3 22-32.9 22-73.3 22z"/><path d="m186.1 130v63l37.8.4v-11.6h-23.4v-51.8z"/><path d="m176.6 161.3c0-18.3-14.2-33.1-31.7-33.1s-31.7 14.8-31.7 33.1c0 17.3 12.7 31.4 28.8 33l13.7 14.8h18.5l-18-16.8c11.9-4.8 20.4-16.8 20.4-31zm-48.8-.1c0-11.4 7.4-20.6 16.6-20.6s16.6 9.2 16.6 20.6-7.4 20.6-16.6 20.6-16.6-9.2-16.6-20.6z"/><path d="m65.9 177 .3 13.3s20.9 8.8 33.5-.8 7-23.7-.8-28.6-21.5-9.6-17.6-17.2 21.1-2 22.6.1v-12.7s-23.3-7-33.7 4.7-1.2 27.4 11.9 31.4 14.1 15.9-.8 15.8c-.1 0-5.4 1.1-15.4-6z"/></g></svg>